<svg xmlns="http://www.w3.org/2000/svg" viewBox="0 0 908 540" width="908" height="540" font-family="ui-monospace, SFMono-Regular, Menlo, Consolas, 'DejaVu Sans Mono', monospace" font-size="14">
<rect width="908" height="540" rx="8" fill="#080808"/>
<text x="0.0" y="14.0" fill="#282828" xml:space="preserve">┌─ Chats ──────────────┬─ Alice ─────────────────────────────────┬─ #general ─────────────────────────────┐</text>
<text x="0.0" y="32.0" fill="#282828" xml:space="preserve">│</text>
<text x="8.4" y="32.0" fill="#7db9b6" xml:space="preserve">▎</text>
<text x="25.2" y="32.0" fill="#e6e6e6" xml:space="preserve">Alice          </text>
<text x="151.2" y="32.0" fill="#797979" xml:space="preserve">09:31</text>
<text x="193.2" y="32.0" fill="#282828" xml:space="preserve">│</text>
<text x="201.6" y="32.0" fill="#797979" xml:space="preserve">    4 09:12 Alice         </text>
<text x="420.0" y="32.0" fill="#e6e6e6" xml:space="preserve">the branch is  </text>
<text x="546.0" y="32.0" fill="#282828" xml:space="preserve">│</text>
<text x="554.4" y="32.0" fill="#797979" xml:space="preserve">    2 09:16 dana          </text>
<text x="772.8" y="32.0" fill="#e6e6e6" xml:space="preserve">ship it when  </text>
<text x="890.4" y="32.0" fill="#282828" xml:space="preserve">│</text>
<text x="0.0" y="50.0" fill="#282828" xml:space="preserve">│</text>
<text x="16.8" y="50.0" fill="#797979" xml:space="preserve">merged — thanks  </text>
<text x="193.2" y="50.0" fill="#282828" xml:space="preserve">│</text>
<text x="420.0" y="50.0" fill="#e6e6e6" xml:space="preserve">green — CI     </text>
<text x="546.0" y="50.0" fill="#282828" xml:space="preserve">│</text>
<text x="772.8" y="50.0" fill="#e6e6e6" xml:space="preserve">you are ready </text>
<text x="890.4" y="50.0" fill="#282828" xml:space="preserve">│</text>
<text x="0.0" y="68.0" fill="#282828" xml:space="preserve">│</text>
<text x="25.2" y="68.0" fill="#e6e6e6" xml:space="preserve">#general       </text>
<text x="151.2" y="68.0" fill="#797979" xml:space="preserve">09:27</text>
<text x="193.2" y="68.0" fill="#282828" xml:space="preserve">│</text>
<text x="420.0" y="68.0" fill="#e6e6e6" xml:space="preserve">finally agrees </text>
<text x="546.0" y="68.0" fill="#282828" xml:space="preserve">│</text>
<text x="554.4" y="68.0" fill="#797979" xml:space="preserve">    1 09:22 lee           </text>
<text x="772.8" y="68.0" fill="#e6e6e6" xml:space="preserve">release notes </text>
<text x="890.4" y="68.0" fill="#282828" xml:space="preserve">│</text>
<text x="0.0" y="86.0" fill="#282828" xml:space="preserve">│</text>
<text x="16.8" y="86.0" fill="#797979" xml:space="preserve">lee: done        </text>
<text x="159.6" y="86.0" fill="#ebc17a" xml:space="preserve">   2</text>
<text x="193.2" y="86.0" fill="#282828" xml:space="preserve">│</text>
<text x="420.0" y="86.0" fill="#e6e6e6" xml:space="preserve">with us        </text>
<text x="546.0" y="86.0" fill="#282828" xml:space="preserve">│</text>
<text x="772.8" y="86.0" fill="#e6e6e6" xml:space="preserve">are written   </text>
<text x="890.4" y="86.0" fill="#282828" xml:space="preserve">│</text>
<text x="0.0" y="104.0" fill="#282828" xml:space="preserve">│</text>
<text x="25.2" y="104.0" fill="#e6e6e6" xml:space="preserve">#releases      </text>
<text x="151.2" y="104.0" fill="#797979" xml:space="preserve">08:42</text>
<text x="193.2" y="104.0" fill="#282828" xml:space="preserve">│</text>
<text x="201.6" y="104.0" fill="#797979" xml:space="preserve">    3 09:14 me         ✓  </text>
<text x="420.0" y="104.0" fill="#7db9b6" xml:space="preserve">that took a    </text>
<text x="546.0" y="104.0" fill="#282828" xml:space="preserve">│</text>
<text x="554.4" y="104.0" fill="#797979" xml:space="preserve">    3 09:27 lee           </text>
<text x="772.8" y="104.0" fill="#e6e6e6" xml:space="preserve">done          </text>
<text x="890.4" y="104.0" fill="#282828" xml:space="preserve">│</text>
<text x="0.0" y="122.0" fill="#282828" xml:space="preserve">│</text>
<text x="16.8" y="122.0" fill="#797979" xml:space="preserve">v0.5.0 tagged    </text>
<text x="193.2" y="122.0" fill="#282828" xml:space="preserve">│</text>
<text x="420.0" y="122.0" fill="#7db9b6" xml:space="preserve">while          </text>
<text x="546.0" y="122.0" fill="#282828" xml:space="preserve">│</text>
<text x="890.4" y="122.0" fill="#282828" xml:space="preserve">│</text>
<text x="0.0" y="140.0" fill="#282828" xml:space="preserve">│</text>
<text x="25.2" y="140.0" fill="#e6e6e6" xml:space="preserve">Dana           </text>
<text x="151.2" y="140.0" fill="#797979" xml:space="preserve">07:42</text>
<text x="193.2" y="140.0" fill="#282828" xml:space="preserve">│</text>
<text x="201.6" y="140.0" fill="#797979" xml:space="preserve">    2 09:17 Alice         </text>
<text x="420.0" y="140.0" fill="#e6e6e6" xml:space="preserve">it did. the    </text>
<text x="546.0" y="140.0" fill="#282828" xml:space="preserve">│</text>
<text x="890.4" y="140.0" fill="#282828" xml:space="preserve">│</text>
<text x="0.0" y="158.0" fill="#282828" xml:space="preserve">│</text>
<text x="16.8" y="158.0" fill="#797979" xml:space="preserve">see you there    </text>
<text x="159.6" y="158.0" fill="#ebc17a" xml:space="preserve">   1</text>
<text x="193.2" y="158.0" fill="#282828" xml:space="preserve">│</text>
<text x="420.0" y="158.0" fill="#e6e6e6" xml:space="preserve">flake was the  </text>
<text x="546.0" y="158.0" fill="#282828" xml:space="preserve">│</text>
<text x="890.4" y="158.0" fill="#282828" xml:space="preserve">│</text>
<text x="0.0" y="176.0" fill="#282828" xml:space="preserve">│</text>
<text x="193.2" y="176.0" fill="#282828" xml:space="preserve">│</text>
<text x="420.0" y="176.0" fill="#e6e6e6" xml:space="preserve">pty test all   </text>
<text x="546.0" y="176.0" fill="#282828" xml:space="preserve">│</text>
<text x="890.4" y="176.0" fill="#282828" xml:space="preserve">│</text>
<text x="0.0" y="194.0" fill="#282828" xml:space="preserve">│</text>
<text x="193.2" y="194.0" fill="#282828" xml:space="preserve">│</text>
<text x="420.0" y="194.0" fill="#e6e6e6" xml:space="preserve">along          </text>
<text x="546.0" y="194.0" fill="#282828" xml:space="preserve">│</text>
<text x="890.4" y="194.0" fill="#282828" xml:space="preserve">│</text>
<text x="0.0" y="212.0" fill="#282828" xml:space="preserve">│</text>
<text x="193.2" y="212.0" fill="#282828" xml:space="preserve">│</text>
<text x="420.0" y="212.0" fill="#e6e6e6" xml:space="preserve">😅 1           </text>
<text x="546.0" y="212.0" fill="#282828" xml:space="preserve">│</text>
<text x="890.4" y="212.0" fill="#282828" xml:space="preserve">│</text>
<text x="0.0" y="230.0" fill="#282828" xml:space="preserve">│</text>
<text x="193.2" y="230.0" fill="#282828" xml:space="preserve">│</text>
<text x="201.6" y="230.0" fill="#797979" xml:space="preserve">    1 09:27 me         ✓  </text>
<text x="420.0" y="230.0" fill="#7db9b6" xml:space="preserve">nice. merging  </text>
<text x="546.0" y="230.0" fill="#282828" xml:space="preserve">│</text>
<text x="890.4" y="230.0" fill="#282828" xml:space="preserve">│</text>
<text x="0.0" y="248.0" fill="#282828" xml:space="preserve">│</text>
<text x="193.2" y="248.0" fill="#282828" xml:space="preserve">│</text>
<text x="420.0" y="248.0" fill="#7db9b6" xml:space="preserve">it now, then   </text>
<text x="546.0" y="248.0" fill="#282828" xml:space="preserve">│</text>
<text x="890.4" y="248.0" fill="#282828" xml:space="preserve">│</text>
<text x="0.0" y="266.0" fill="#282828" xml:space="preserve">│</text>
<text x="193.2" y="266.0" fill="#282828" xml:space="preserve">│</text>
<text x="420.0" y="266.0" fill="#7db9b6" xml:space="preserve">tagging v0.5.0 </text>
<text x="546.0" y="266.0" fill="#282828" xml:space="preserve">│</text>
<text x="890.4" y="266.0" fill="#282828" xml:space="preserve">│</text>
<text x="0.0" y="284.0" fill="#282828" xml:space="preserve">│</text>
<text x="193.2" y="284.0" fill="#282828" xml:space="preserve">│</text>
<rect x="201.6" y="270.0" width="50.4" height="18" fill="#383838"/>
<text x="201.6" y="284.0" fill="#ebc17a" xml:space="preserve">    5 </text>
<rect x="252.0" y="270.0" width="168.0" height="18" fill="#383838"/>
<text x="252.0" y="284.0" fill="#797979" xml:space="preserve">09:31 Alice         </text>
<rect x="420.0" y="270.0" width="126.0" height="18" fill="#383838"/>
<text x="420.0" y="284.0" fill="#e6e6e6" xml:space="preserve">merged — thanks</text>
<text x="546.0" y="284.0" fill="#282828" xml:space="preserve">│</text>
<text x="890.4" y="284.0" fill="#282828" xml:space="preserve">│</text>
<text x="0.0" y="302.0" fill="#282828" xml:space="preserve">│</text>
<text x="193.2" y="302.0" fill="#282828" xml:space="preserve">│</text>
<text x="546.0" y="302.0" fill="#282828" xml:space="preserve">│</text>
<text x="890.4" y="302.0" fill="#282828" xml:space="preserve">│</text>
<text x="0.0" y="320.0" fill="#282828" xml:space="preserve">│</text>
<text x="193.2" y="320.0" fill="#282828" xml:space="preserve">│</text>
<text x="546.0" y="320.0" fill="#282828" xml:space="preserve">│</text>
<text x="890.4" y="320.0" fill="#282828" xml:space="preserve">│</text>
<text x="0.0" y="338.0" fill="#282828" xml:space="preserve">│</text>
<text x="193.2" y="338.0" fill="#282828" xml:space="preserve">│</text>
<text x="546.0" y="338.0" fill="#282828" xml:space="preserve">│</text>
<text x="890.4" y="338.0" fill="#282828" xml:space="preserve">│</text>
<text x="0.0" y="356.0" fill="#282828" xml:space="preserve">│</text>
<text x="193.2" y="356.0" fill="#282828" xml:space="preserve">│</text>
<text x="546.0" y="356.0" fill="#282828" xml:space="preserve">│</text>
<text x="890.4" y="356.0" fill="#282828" xml:space="preserve">│</text>
<text x="0.0" y="374.0" fill="#282828" xml:space="preserve">│</text>
<text x="193.2" y="374.0" fill="#282828" xml:space="preserve">│</text>
<text x="546.0" y="374.0" fill="#282828" xml:space="preserve">│</text>
<text x="890.4" y="374.0" fill="#282828" xml:space="preserve">│</text>
<text x="0.0" y="392.0" fill="#282828" xml:space="preserve">│</text>
<text x="193.2" y="392.0" fill="#282828" xml:space="preserve">│</text>
<text x="546.0" y="392.0" fill="#282828" xml:space="preserve">│</text>
<text x="890.4" y="392.0" fill="#282828" xml:space="preserve">│</text>
<text x="0.0" y="410.0" fill="#282828" xml:space="preserve">│</text>
<text x="193.2" y="410.0" fill="#282828" xml:space="preserve">│</text>
<text x="546.0" y="410.0" fill="#282828" xml:space="preserve">│</text>
<text x="890.4" y="410.0" fill="#282828" xml:space="preserve">│</text>
<text x="0.0" y="428.0" fill="#282828" xml:space="preserve">│</text>
<text x="193.2" y="428.0" fill="#282828" xml:space="preserve">│</text>
<text x="546.0" y="428.0" fill="#282828" xml:space="preserve">│</text>
<text x="890.4" y="428.0" fill="#282828" xml:space="preserve">│</text>
<text x="0.0" y="446.0" fill="#282828" xml:space="preserve">│</text>
<text x="193.2" y="446.0" fill="#282828" xml:space="preserve">│</text>
<text x="546.0" y="446.0" fill="#282828" xml:space="preserve">│</text>
<text x="890.4" y="446.0" fill="#282828" xml:space="preserve">│</text>
<text x="0.0" y="464.0" fill="#282828" xml:space="preserve">│</text>
<text x="193.2" y="464.0" fill="#282828" xml:space="preserve">│</text>
<text x="546.0" y="464.0" fill="#282828" xml:space="preserve">│</text>
<text x="890.4" y="464.0" fill="#282828" xml:space="preserve">│</text>
<text x="0.0" y="482.0" fill="#282828" xml:space="preserve">│</text>
<text x="193.2" y="482.0" fill="#282828" xml:space="preserve">│─────────────────────────────────────────│</text>
<text x="890.4" y="482.0" fill="#282828" xml:space="preserve">│</text>
<text x="0.0" y="500.0" fill="#282828" xml:space="preserve">│</text>
<text x="193.2" y="500.0" fill="#282828" xml:space="preserve">│</text>
<text x="201.6" y="500.0" fill="#ebc17a" xml:space="preserve">❯ </text>
<text x="218.4" y="500.0" fill="#797979" xml:space="preserve">press i to write…</text>
<text x="546.0" y="500.0" fill="#282828" xml:space="preserve">│</text>
<text x="890.4" y="500.0" fill="#282828" xml:space="preserve">│</text>
<text x="0.0" y="518.0" fill="#282828" xml:space="preserve">└──────────────────────┴─────────────────────────────────────────┴────────────────────────────────────────┘</text>
<rect x="0.0" y="522.0" width="67.2" height="18" fill="#7db9b6"/>
<text x="0.0" y="536.0" fill="#080808" xml:space="preserve"> NORMAL </text>
<text x="84.0" y="536.0" fill="#87afaf" xml:space="preserve">● </text>
<text x="100.8" y="536.0" fill="#e6e6e6" xml:space="preserve">Alice</text>
<text x="142.8" y="536.0" fill="#797979" xml:space="preserve"> · 2 chats waiting                                          #15  09:31  Bot  5/5  \ for key</text>
</svg>